<svg xmlns="http://www.w3.org/2000/svg" width="800" height="600" viewBox="0 0 800 600">
  <defs>
    <linearGradient id="g" x1="0" y1="0" x2="1" y2="1">
      <stop offset="0" stop-color="#0a0a0a"/>
      <stop offset="0.5" stop-color="#1f2937"/>
      <stop offset="1" stop-color="#10b981"/>
    </linearGradient>
  </defs>
  <rect width="800" height="600" fill="url(#g)"/>
  <g transform="translate(400 290)">
    <path d="M -300 80 L -150 -40 L -50 60 L 80 -80 L 240 50 L 300 80 z" fill="#065f46" stroke="#a7f3d0" stroke-width="2.5"/>
    <path d="M -300 120 L -300 80 L 300 80 L 300 120 z" fill="#0f172a" stroke="#a7f3d0" stroke-width="2.5"/>
    <g fill="#34d399" stroke="#065f46" stroke-width="1.5">
      <polygon points="-180,80 -160,30 -140,80"/>
      <polygon points="-100,80 -75,15 -50,80"/>
      <polygon points="40,80 60,30 80,80"/>
      <polygon points="160,80 180,40 200,80"/>
    </g>
    <circle cx="180" cy="-150" r="40" fill="#fde68a" opacity="0.85"/>
  </g>
  <text x="400" y="500" text-anchor="middle" fill="#ffffff" font-family="ui-sans-serif, system-ui, sans-serif" font-size="44" font-weight="700">Divergent Terrains UE5</text>
  <text x="400" y="540" text-anchor="middle" fill="#a7f3d0" font-family="ui-sans-serif, system-ui, sans-serif" font-size="20" font-weight="500" opacity="0.85">Unreal Engine 5 &#183; Survival Prototype</text>
</svg>
