<svg xmlns="http://www.w3.org/2000/svg" width="800" height="600" viewBox="0 0 800 600">
  <defs>
    <linearGradient id="g" x1="0" y1="0" x2="1" y2="1">
      <stop offset="0" stop-color="#f97316"/>
      <stop offset="1" stop-color="#c2410c"/>
    </linearGradient>
  </defs>
  <rect width="800" height="600" fill="url(#g)"/>
  <g transform="translate(220 160)" fill="#ffffff">
    <path d="M0 60 l60 -60 l300 0 l60 60 l0 220 a20 20 0 0 1 -20 20 l-380 0 a20 20 0 0 1 -20 -20 z" opacity="0.95"/>
    <g fill="#c2410c">
      <rect x="40" y="120" width="340" height="20" rx="6"/>
      <rect x="40" y="160" width="260" height="14" rx="5"/>
      <rect x="40" y="190" width="220" height="14" rx="5"/>
      <rect x="40" y="220" width="180" height="14" rx="5"/>
    </g>
    <g stroke="#c2410c" stroke-width="6" fill="none">
      <line x1="60" y1="40" x2="60" y2="80"/>
      <line x1="180" y1="40" x2="180" y2="80"/>
      <line x1="300" y1="40" x2="300" y2="80"/>
    </g>
  </g>
  <g transform="translate(550 380)" fill="#fde68a" stroke="#7c2d12" stroke-width="5">
    <circle r="44"/>
    <text x="0" y="14" text-anchor="middle" fill="#7c2d12" font-family="serif" font-size="56" font-weight="700">$</text>
  </g>
  <text x="400" y="540" text-anchor="middle" fill="#ffffff" font-family="ui-sans-serif, system-ui, sans-serif" font-size="42" font-weight="700">Etsy Listing Uploader</text>
</svg>
