<svg xmlns="http://www.w3.org/2000/svg" width="800" height="600" viewBox="0 0 800 600">
  <defs>
    <linearGradient id="g" x1="0" y1="0" x2="1" y2="1">
      <stop offset="0" stop-color="#1c1917"/>
      <stop offset="0.5" stop-color="#7c2d12"/>
      <stop offset="1" stop-color="#fb923c"/>
    </linearGradient>
  </defs>
  <rect width="800" height="600" fill="url(#g)"/>
  <g transform="translate(400 280)" stroke="#fed7aa" stroke-width="2">
    <g fill="#1c1917">
      <rect x="-280" y="-30" width="560" height="60"/>
    </g>
    <g fill="#fed7aa" stroke="none">
      <rect x="-260" y="-15" width="20" height="30"/>
      <rect x="-200" y="-15" width="20" height="30"/>
      <rect x="-140" y="-15" width="20" height="30"/>
      <rect x="-80" y="-15" width="20" height="30"/>
      <rect x="-20" y="-15" width="20" height="30"/>
      <rect x="40" y="-15" width="20" height="30"/>
      <rect x="100" y="-15" width="20" height="30"/>
      <rect x="160" y="-15" width="20" height="30"/>
      <rect x="220" y="-15" width="20" height="30"/>
    </g>
    <g fill="#0f172a" stroke="#fb923c" stroke-width="3">
      <rect x="-200" y="-130" width="100" height="80"/>
      <rect x="100" y="-130" width="100" height="80"/>
      <rect x="-50" y="60" width="100" height="80"/>
    </g>
    <g fill="#fb923c" stroke="none" font-family="ui-monospace, SFMono-Regular, Menlo, monospace" font-size="16" font-weight="800" text-anchor="middle">
      <text x="-150" y="-80">PRESS</text>
      <text x="150" y="-80">FURNACE</text>
      <text x="0" y="110">STORAGE</text>
    </g>
  </g>
  <text x="400" y="500" text-anchor="middle" fill="#ffffff" font-family="ui-sans-serif, system-ui, sans-serif" font-size="44" font-weight="700">Factory Game</text>
  <text x="400" y="540" text-anchor="middle" fill="#fed7aa" font-family="ui-sans-serif, system-ui, sans-serif" font-size="20" font-weight="500" opacity="0.85">UE4 &#183; C++ &#183; Blueprints</text>
</svg>
