<svg xmlns="http://www.w3.org/2000/svg" width="800" height="600" viewBox="0 0 800 600">
  <defs>
    <linearGradient id="g" x1="0" y1="0" x2="1" y2="1">
      <stop offset="0" stop-color="#0f172a"/>
      <stop offset="0.5" stop-color="#155e75"/>
      <stop offset="1" stop-color="#22d3ee"/>
    </linearGradient>
  </defs>
  <rect width="800" height="600" fill="url(#g)"/>
  <g transform="translate(400 280)" fill="none" stroke="#a5f3fc" stroke-width="2.5">
    <circle r="80" fill="#0e7490" stroke="#67e8f9"/>
    <path d="M -36 -10 L 50 -36 L 24 38 L 4 14 z" fill="#fde68a" stroke="#fde68a"/>
    <g stroke="#67e8f9" opacity="0.9">
      <line x1="-160" y1="-60" x2="-90" y2="-30"/>
      <line x1="160" y1="-60" x2="90" y2="-30"/>
      <line x1="-180" y1="40" x2="-90" y2="20"/>
      <line x1="180" y1="40" x2="90" y2="20"/>
      <line x1="-150" y1="120" x2="-60" y2="80"/>
      <line x1="150" y1="120" x2="60" y2="80"/>
      <circle cx="-160" cy="-60" r="14" fill="#0f172a"/>
      <circle cx="160" cy="-60" r="14" fill="#0f172a"/>
      <circle cx="-180" cy="40" r="14" fill="#0f172a"/>
      <circle cx="180" cy="40" r="14" fill="#0f172a"/>
      <circle cx="-150" cy="120" r="14" fill="#0f172a"/>
      <circle cx="150" cy="120" r="14" fill="#0f172a"/>
    </g>
  </g>
  <text x="400" y="500" text-anchor="middle" fill="#ffffff" font-family="ui-sans-serif, system-ui, sans-serif" font-size="44" font-weight="700">Telegram Shiller</text>
  <text x="400" y="540" text-anchor="middle" fill="#a5f3fc" font-family="ui-sans-serif, system-ui, sans-serif" font-size="20" font-weight="500" opacity="0.85">NestJS &#183; MTProto &#183; Telegram</text>
</svg>
