<svg xmlns="http://www.w3.org/2000/svg" width="800" height="600" viewBox="0 0 800 600">
  <defs>
    <linearGradient id="g" x1="0" y1="0" x2="1" y2="1">
      <stop offset="0" stop-color="#0b0b0b"/>
      <stop offset="0.5" stop-color="#3f2a05"/>
      <stop offset="1" stop-color="#f0b90b"/>
    </linearGradient>
  </defs>
  <rect width="800" height="600" fill="url(#g)"/>
  <g transform="translate(400 280)" fill="none">
    <g stroke="#fde68a" stroke-width="2" opacity="0.9">
      <rect x="-220" y="-100" width="170" height="60" rx="8"/>
      <rect x="50" y="-100" width="170" height="60" rx="8"/>
      <rect x="-220" y="40" width="170" height="60" rx="8"/>
      <rect x="50" y="40" width="170" height="60" rx="8"/>
    </g>
    <g fill="#fde68a" font-family="ui-monospace, SFMono-Regular, Menlo, monospace" font-size="18" font-weight="700">
      <text x="-200" y="-60">BUY 1.05</text>
      <text x="70" y="-60">SELL 1.07</text>
      <text x="-200" y="80">BUY 1.04</text>
      <text x="70" y="80">SELL 1.08</text>
    </g>
    <g stroke="#f0b90b" stroke-width="2" fill="none" opacity="0.7">
      <path d="M -50 -70 Q 0 -120 50 -70" marker-end="url(#a)"/>
      <path d="M -50 70 Q 0 120 50 70" marker-end="url(#a)"/>
    </g>
  </g>
  <defs>
    <marker id="a" markerWidth="8" markerHeight="8" refX="6" refY="4" orient="auto">
      <path d="M 0 0 L 8 4 L 0 8 z" fill="#f0b90b"/>
    </marker>
  </defs>
  <text x="400" y="500" text-anchor="middle" fill="#ffffff" font-family="ui-sans-serif, system-ui, sans-serif" font-size="44" font-weight="700">Binance P2P Bot</text>
  <text x="400" y="540" text-anchor="middle" fill="#fde68a" font-family="ui-sans-serif, system-ui, sans-serif" font-size="20" font-weight="500" opacity="0.85">NestJS &#183; Selenium &#183; Telegram</text>
</svg>
