<svg xmlns="http://www.w3.org/2000/svg" width="800" height="600" viewBox="0 0 800 600">
  <defs>
    <linearGradient id="g" x1="0" y1="0" x2="1" y2="1">
      <stop offset="0" stop-color="#0b0f1a"/>
      <stop offset="0.5" stop-color="#0f766e"/>
      <stop offset="1" stop-color="#22d3ee"/>
    </linearGradient>
    <marker id="a" markerWidth="8" markerHeight="8" refX="6" refY="4" orient="auto">
      <path d="M 0 0 L 8 4 L 0 8 z" fill="#a5f3fc"/>
    </marker>
  </defs>
  <rect width="800" height="600" fill="url(#g)"/>
  <g transform="translate(400 280)" fill="none" stroke="#a5f3fc" stroke-width="2.5">
    <rect x="-280" y="-160" width="180" height="70" rx="10" fill="#0f172a"/>
    <rect x="-90" y="-160" width="180" height="70" rx="10" fill="#0f172a"/>
    <rect x="100" y="-160" width="180" height="70" rx="10" fill="#0f172a"/>
    <line x1="-190" y1="-90" x2="0" y2="0" marker-end="url(#a)"/>
    <line x1="0" y1="-90" x2="0" y2="0" marker-end="url(#a)"/>
    <line x1="190" y1="-90" x2="0" y2="0" marker-end="url(#a)"/>
    <circle cx="0" cy="30" r="44" fill="#0e7490"/>
    <line x1="0" y1="74" x2="0" y2="130" marker-end="url(#a)"/>
    <rect x="-160" y="130" width="320" height="60" rx="10" fill="#0f172a"/>
    <g fill="#fde68a" stroke="none">
      <circle cx="-100" cy="160" r="6"/>
      <circle cx="-50" cy="160" r="6"/>
      <circle cx="0" cy="160" r="6"/>
      <circle cx="50" cy="160" r="6"/>
      <circle cx="100" cy="160" r="6"/>
    </g>
  </g>
  <g transform="translate(400 280)" font-family="ui-monospace, SFMono-Regular, Menlo, monospace" font-size="14" font-weight="800" text-anchor="middle">
    <text x="-190" y="-130" fill="#a5f3fc">PROTOCOL</text>
    <text x="-190" y="-110" fill="#a5f3fc" font-size="11" opacity="0.8">ERC1155</text>
    <text x="0" y="-130" fill="#a5f3fc">BACKEND</text>
    <text x="0" y="-110" fill="#a5f3fc" font-size="11" opacity="0.8">NestJS + SNS/SQS</text>
    <text x="190" y="-130" fill="#a5f3fc">WEB</text>
    <text x="190" y="-110" fill="#a5f3fc" font-size="11" opacity="0.8">Next.js + Tailwind</text>
    <text x="0" y="36" fill="#a5f3fc" font-size="14">GAMEWALL</text>
    <text x="0" y="120" fill="#fde68a" font-size="13">on-chain badges</text>
  </g>
  <text x="400" y="500" text-anchor="middle" fill="#ffffff" font-family="ui-sans-serif, system-ui, sans-serif" font-size="44" font-weight="700">Gamewall</text>
  <text x="400" y="540" text-anchor="middle" fill="#a5f3fc" font-family="ui-sans-serif, system-ui, sans-serif" font-size="20" font-weight="500" opacity="0.85">NestJS &#183; Hardhat &#183; Next.js &#183; Steam</text>
</svg>
