<svg xmlns="http://www.w3.org/2000/svg" width="800" height="600" viewBox="0 0 800 600">
  <defs>
    <linearGradient id="g" x1="0" y1="0" x2="1" y2="1">
      <stop offset="0" stop-color="#0f172a"/>
      <stop offset="0.5" stop-color="#1e293b"/>
      <stop offset="1" stop-color="#f97316"/>
    </linearGradient>
  </defs>
  <rect width="800" height="600" fill="url(#g)"/>
  <g transform="translate(400 280)" fill="none" stroke="#fed7aa" stroke-width="2">
    <g>
      <rect x="-150" y="-150" width="300" height="300" stroke-width="3"/>
      <line x1="-90" y1="-150" x2="-90" y2="150"/>
      <line x1="-30" y1="-150" x2="-30" y2="150"/>
      <line x1="30" y1="-150" x2="30" y2="150"/>
      <line x1="90" y1="-150" x2="90" y2="150"/>
      <line x1="-150" y1="-90" x2="150" y2="-90"/>
      <line x1="-150" y1="-30" x2="150" y2="-30"/>
      <line x1="-150" y1="30" x2="150" y2="30"/>
      <line x1="-150" y1="90" x2="150" y2="90"/>
    </g>
    <g fill="#f97316" stroke="none">
      <rect x="-150" y="-150" width="60" height="60"/>
      <rect x="-30" y="-150" width="60" height="60"/>
      <rect x="90" y="-150" width="60" height="60"/>
      <rect x="-90" y="-90" width="60" height="60"/>
      <rect x="30" y="-90" width="60" height="60"/>
      <rect x="-150" y="-30" width="60" height="60"/>
      <rect x="-30" y="-30" width="60" height="60"/>
      <rect x="90" y="-30" width="60" height="60"/>
      <rect x="-90" y="30" width="60" height="60"/>
      <rect x="30" y="30" width="60" height="60"/>
      <rect x="-30" y="90" width="60" height="60"/>
    </g>
  </g>
  <text x="400" y="500" text-anchor="middle" fill="#ffffff" font-family="ui-sans-serif, system-ui, sans-serif" font-size="44" font-weight="700">Nonogram</text>
  <text x="400" y="540" text-anchor="middle" fill="#fed7aa" font-family="ui-sans-serif, system-ui, sans-serif" font-size="20" font-weight="500" opacity="0.85">Godot 3 &#183; GDScript &#183; Puzzle</text>
</svg>
