<svg xmlns="http://www.w3.org/2000/svg" width="800" height="600" viewBox="0 0 800 600">
  <defs>
    <linearGradient id="g" x1="0" y1="0" x2="1" y2="1">
      <stop offset="0" stop-color="#0a0a0a"/>
      <stop offset="0.5" stop-color="#713f12"/>
      <stop offset="1" stop-color="#facc15"/>
    </linearGradient>
  </defs>
  <rect width="800" height="600" fill="url(#g)"/>
  <g transform="translate(400 280)" fill="none" stroke="#fde68a" stroke-width="2.5">
    <rect x="-280" y="-160" width="560" height="320" rx="18" fill="#0a0a0a"/>
    <line x1="-280" y1="-110" x2="280" y2="-110"/>
    <text x="-260" y="-128" fill="#fde68a" font-family="ui-sans-serif, system-ui, sans-serif" font-size="20" font-weight="800">BSC ALERTS BOT</text>
    <text x="260" y="-128" text-anchor="end" fill="#86efac" font-family="ui-monospace, SFMono-Regular, Menlo, monospace" font-size="16" font-weight="700">PRO PLAN</text>
    <g font-family="ui-monospace, SFMono-Regular, Menlo, monospace" font-size="18">
      <rect x="-260" y="-90" width="520" height="46" rx="8" fill="#1c1917"/>
      <text x="-240" y="-60" fill="#fde68a" font-weight="700">CAKE</text>
      <text x="-180" y="-60" fill="#a5f3fc">+8.4% (5m)</text>
      <text x="240" y="-60" fill="#86efac" font-weight="800" text-anchor="end">PUMP</text>

      <rect x="-260" y="-36" width="520" height="46" rx="8" fill="#1c1917"/>
      <text x="-240" y="-6" fill="#fde68a" font-weight="700">BUSD/WBNB</text>
      <text x="-120" y="-6" fill="#a5f3fc">flashloan 24 BNB</text>
      <text x="240" y="-6" fill="#facc15" font-weight="800" text-anchor="end">FL</text>

      <rect x="-260" y="18" width="520" height="46" rx="8" fill="#1c1917"/>
      <text x="-240" y="48" fill="#fde68a" font-weight="700">WHALE</text>
      <text x="-160" y="48" fill="#a5f3fc">120k USD into LOBO</text>
      <text x="240" y="48" fill="#22d3ee" font-weight="800" text-anchor="end">WH</text>

      <rect x="-260" y="72" width="520" height="46" rx="8" fill="#1c1917"/>
      <text x="-240" y="102" fill="#fde68a" font-weight="700">PRICE</text>
      <text x="-160" y="102" fill="#a5f3fc">SHIB &gt; 0.000018</text>
      <text x="240" y="102" fill="#fbbf24" font-weight="800" text-anchor="end">P</text>
    </g>
  </g>
  <text x="400" y="500" text-anchor="middle" fill="#ffffff" font-family="ui-sans-serif, system-ui, sans-serif" font-size="40" font-weight="700">BSC Telegram Trading Bot</text>
  <text x="400" y="540" text-anchor="middle" fill="#fde68a" font-family="ui-sans-serif, system-ui, sans-serif" font-size="20" font-weight="500" opacity="0.85">Telegram &#183; ethers &#183; Mongo &#183; Redis</text>
</svg>
