<svg xmlns="http://www.w3.org/2000/svg" width="800" height="600" viewBox="0 0 800 600">
  <defs>
    <linearGradient id="g" x1="0" y1="0" x2="1" y2="1">
      <stop offset="0" stop-color="#0f172a"/>
      <stop offset="1" stop-color="#1e3a8a"/>
    </linearGradient>
  </defs>
  <rect width="800" height="600" fill="url(#g)"/>
  <g transform="translate(400 320)">
    <g stroke="#0f172a" stroke-width="3">
      <polygon points="-220,40 0,-40 220,40 0,120" fill="#ef4444"/>
      <polygon points="-220,0 0,-80 220,0 0,80" fill="#f59e0b"/>
      <polygon points="-220,-40 0,-120 220,-40 0,40" fill="#10b981"/>
      <polygon points="-220,-80 0,-160 220,-80 0,0" fill="#3b82f6"/>
      <polygon points="-220,-120 0,-200 220,-120 0,-40" fill="#a855f7"/>
    </g>
    <g fill="none" stroke="#fef3c7" stroke-width="3" stroke-dasharray="8 6" opacity="0.8">
      <line x1="-260" y1="-200" x2="260" y2="-200"/>
      <line x1="-260" y1="-200" x2="-260" y2="120"/>
      <line x1="260" y1="-200" x2="260" y2="120"/>
    </g>
  </g>
  <text x="400" y="540" text-anchor="middle" fill="#ffffff" font-family="ui-sans-serif, system-ui, sans-serif" font-size="40" font-weight="700">TD Flat-Top 3MF Generator</text>
</svg>
