<svg xmlns="http://www.w3.org/2000/svg" width="800" height="600" viewBox="0 0 800 600">
  <defs>
    <linearGradient id="g" x1="0" y1="0" x2="1" y2="1">
      <stop offset="0" stop-color="#0f172a"/>
      <stop offset="0.6" stop-color="#1e3a8a"/>
      <stop offset="1" stop-color="#0891b2"/>
    </linearGradient>
    <marker id="arrow" markerWidth="8" markerHeight="8" refX="6" refY="4" orient="auto">
      <path d="M 0 0 L 8 4 L 0 8 z" fill="#67e8f9"/>
    </marker>
  </defs>
  <rect width="800" height="600" fill="url(#g)"/>
  <g transform="translate(400 280)" fill="none" stroke="#67e8f9" stroke-width="2.5">
    <rect x="-310" y="-170" width="200" height="70" rx="10" fill="#0f172a"/>
    <rect x="-100" y="-170" width="200" height="70" rx="10" fill="#0f172a"/>
    <rect x="110" y="-170" width="200" height="70" rx="10" fill="#0f172a"/>
    <rect x="-260" y="-50" width="520" height="80" rx="12" fill="#1e3a8a" stroke="#a5f3fc"/>
    <line x1="-210" y1="-100" x2="-100" y2="-50" marker-end="url(#arrow)"/>
    <line x1="0" y1="-100" x2="0" y2="-50" marker-end="url(#arrow)"/>
    <line x1="210" y1="-100" x2="100" y2="-50" marker-end="url(#arrow)"/>
    <rect x="-260" y="60" width="160" height="80" rx="10" fill="#0f172a"/>
    <rect x="-80" y="60" width="160" height="80" rx="10" fill="#0f172a"/>
    <rect x="100" y="60" width="160" height="80" rx="10" fill="#0f172a"/>
    <line x1="-180" y1="30" x2="-180" y2="60" marker-end="url(#arrow)"/>
    <line x1="0" y1="30" x2="0" y2="60" marker-end="url(#arrow)"/>
    <line x1="180" y1="30" x2="180" y2="60" marker-end="url(#arrow)"/>
  </g>
  <g transform="translate(400 280)" font-family="ui-monospace, SFMono-Regular, Menlo, monospace" font-size="13" font-weight="800" text-anchor="middle">
    <text x="-210" y="-140" fill="#67e8f9">CASH (2023)</text>
    <text x="-210" y="-122" fill="#67e8f9" font-size="11" opacity="0.8">payment contracts</text>
    <text x="0" y="-140" fill="#67e8f9">CORE API (2025)</text>
    <text x="0" y="-122" fill="#67e8f9" font-size="11" opacity="0.8">Clean Architecture</text>
    <text x="210" y="-140" fill="#67e8f9">MONOREPO (2025)</text>
    <text x="210" y="-122" fill="#67e8f9" font-size="11" opacity="0.8">npm workspaces</text>
    <text x="0" y="-15" fill="#a5f3fc" font-size="16" font-weight="800">@zonda/abilities &#183; CASL</text>
    <text x="-180" y="105" fill="#67e8f9">back-office</text>
    <text x="0" y="105" fill="#67e8f9">front-office</text>
    <text x="180" y="105" fill="#67e8f9">dApp</text>
  </g>
  <text x="400" y="500" text-anchor="middle" fill="#ffffff" font-family="ui-sans-serif, system-ui, sans-serif" font-size="44" font-weight="700">Zonda Platform</text>
  <text x="400" y="540" text-anchor="middle" fill="#a5f3fc" font-family="ui-sans-serif, system-ui, sans-serif" font-size="20" font-weight="500" opacity="0.85">NestJS &#183; Next.js &#183; CASL &#183; Hardhat</text>
</svg>
