<svg xmlns="http://www.w3.org/2000/svg" width="800" height="600" viewBox="0 0 800 600">
  <defs>
    <linearGradient id="g" x1="0" y1="0" x2="1" y2="1">
      <stop offset="0" stop-color="#020617"/>
      <stop offset="0.5" stop-color="#1e1b4b"/>
      <stop offset="1" stop-color="#a855f7"/>
    </linearGradient>
  </defs>
  <rect width="800" height="600" fill="url(#g)"/>
  <g transform="translate(400 280)" fill="none" stroke="#e9d5ff" stroke-width="2.5">
    <rect x="-260" y="-130" width="520" height="260" rx="14" fill="#0f172a"/>
    <line x1="-260" y1="-80" x2="260" y2="-80"/>
    <text x="-240" y="-100" fill="#fde68a" font-family="ui-sans-serif, system-ui, sans-serif" font-size="20" font-weight="800">DASHBOARD GAMES</text>
    <rect x="-240" y="-60" width="120" height="40" rx="8" fill="#a855f7"/>
    <text x="-180" y="-32" text-anchor="middle" fill="#0f172a" font-family="ui-sans-serif, system-ui, sans-serif" font-size="18" font-weight="800">PLAY</text>
    <rect x="-110" y="-60" width="160" height="40" rx="8" fill="#1e1b4b" stroke="#e9d5ff"/>
    <text x="-30" y="-32" text-anchor="middle" fill="#e9d5ff" font-family="ui-sans-serif, system-ui, sans-serif" font-size="18" font-weight="800">STEAM SIGN-IN</text>
    <rect x="-240" y="0" width="480" height="14" rx="3" fill="#334155"/>
    <rect x="-240" y="22" width="380" height="14" rx="3" fill="#334155"/>
    <rect x="-240" y="44" width="320" height="14" rx="3" fill="#334155"/>
    <rect x="-240" y="80" width="200" height="40" rx="6" fill="#7c3aed"/>
    <text x="-140" y="108" text-anchor="middle" fill="#fde68a" font-family="ui-sans-serif, system-ui, sans-serif" font-size="18" font-weight="800">JOIN BETA</text>
  </g>
  <text x="400" y="500" text-anchor="middle" fill="#ffffff" font-family="ui-sans-serif, system-ui, sans-serif" font-size="44" font-weight="700">DG Launch Site</text>
  <text x="400" y="540" text-anchor="middle" fill="#e9d5ff" font-family="ui-sans-serif, system-ui, sans-serif" font-size="20" font-weight="500" opacity="0.85">Next.js &#183; GSAP &#183; Steam OAuth</text>
</svg>
