<svg xmlns="http://www.w3.org/2000/svg" width="800" height="600" viewBox="0 0 800 600">
  <defs>
    <linearGradient id="g" x1="0" y1="0" x2="1" y2="1">
      <stop offset="0" stop-color="#052e16"/>
      <stop offset="0.5" stop-color="#166534"/>
      <stop offset="1" stop-color="#22d3ee"/>
    </linearGradient>
    <marker id="a" markerWidth="8" markerHeight="8" refX="6" refY="4" orient="auto">
      <path d="M 0 0 L 8 4 L 0 8 z" fill="#a7f3d0"/>
    </marker>
  </defs>
  <rect width="800" height="600" fill="url(#g)"/>
  <g transform="translate(400 280)" fill="none" stroke="#a7f3d0" stroke-width="2.5">
    <rect x="-280" y="-160" width="200" height="80" rx="10" fill="#052e16"/>
    <rect x="80" y="-160" width="200" height="80" rx="10" fill="#052e16"/>
    <line x1="-180" y1="-80" x2="0" y2="-30" marker-end="url(#a)"/>
    <line x1="-180" y1="-80" x2="180" y2="-80" marker-end="url(#a)"/>
    <ellipse cx="0" cy="-10" rx="80" ry="40" fill="#166534"/>
    <line x1="180" y1="-80" x2="180" y2="80" marker-end="url(#a)"/>
    <rect x="80" y="80" width="200" height="60" rx="10" fill="#052e16"/>
    <g fill="#fde68a" stroke="none">
      <circle cx="-200" cy="120" r="8"/>
      <circle cx="-150" cy="100" r="6"/>
      <circle cx="-110" cy="130" r="7"/>
    </g>
    <line x1="-160" y1="120" x2="80" y2="110" stroke-dasharray="4,4" marker-end="url(#a)"/>
  </g>
  <g transform="translate(400 280)" font-family="ui-monospace, SFMono-Regular, Menlo, monospace" font-size="13" font-weight="800" text-anchor="middle">
    <text x="-180" y="-130" fill="#a7f3d0">CRAWLER</text>
    <text x="-180" y="-110" fill="#a7f3d0" font-size="11" opacity="0.8">marketplace API</text>
    <text x="180" y="-130" fill="#a7f3d0">MONGO</text>
    <text x="180" y="-110" fill="#a7f3d0" font-size="11" opacity="0.8">land + season</text>
    <text x="0" y="-6" fill="#fde68a" font-size="13">Web3 events</text>
    <text x="180" y="110" fill="#a7f3d0">TG BOT</text>
    <text x="180" y="130" fill="#a7f3d0" font-size="11" opacity="0.8">per-user alerts</text>
    <text x="-150" y="160" fill="#fde68a" font-size="11">players</text>
  </g>
  <text x="400" y="500" text-anchor="middle" fill="#ffffff" font-family="ui-sans-serif, system-ui, sans-serif" font-size="44" font-weight="700">Wanaka Farm Tooling</text>
  <text x="400" y="540" text-anchor="middle" fill="#a7f3d0" font-family="ui-sans-serif, system-ui, sans-serif" font-size="20" font-weight="500" opacity="0.85">Node.js &#183; Telegram &#183; Web3 &#183; MongoDB</text>
</svg>
