<svg xmlns="http://www.w3.org/2000/svg" width="800" height="600" viewBox="0 0 800 600">
  <defs>
    <linearGradient id="g" x1="0" y1="0" x2="1" y2="1">
      <stop offset="0" stop-color="#0a0a0a"/>
      <stop offset="0.5" stop-color="#7c2d12"/>
      <stop offset="1" stop-color="#fbbf24"/>
    </linearGradient>
    <marker id="a" markerWidth="8" markerHeight="8" refX="6" refY="4" orient="auto">
      <path d="M 0 0 L 8 4 L 0 8 z" fill="#fde68a"/>
    </marker>
  </defs>
  <rect width="800" height="600" fill="url(#g)"/>
  <g transform="translate(400 280)" fill="none" stroke="#fde68a" stroke-width="2.5">
    <rect x="-310" y="-160" width="200" height="80" rx="10" fill="#1c1917"/>
    <rect x="-100" y="-160" width="200" height="80" rx="10" fill="#1c1917"/>
    <rect x="110" y="-160" width="200" height="80" rx="10" fill="#1c1917"/>
    <line x1="-210" y1="-80" x2="0" y2="0" marker-end="url(#a)"/>
    <line x1="0" y1="-80" x2="0" y2="0" marker-end="url(#a)"/>
    <line x1="210" y1="-80" x2="0" y2="0" marker-end="url(#a)"/>
    <circle cx="0" cy="30" r="40" fill="#7c2d12"/>
    <line x1="0" y1="70" x2="-160" y2="140" marker-end="url(#a)"/>
    <line x1="0" y1="70" x2="160" y2="140" marker-end="url(#a)"/>
    <rect x="-260" y="140" width="200" height="40" rx="8" fill="#0a0a0a"/>
    <rect x="60" y="140" width="200" height="40" rx="8" fill="#0a0a0a"/>
  </g>
  <g transform="translate(400 280)" font-family="ui-monospace, SFMono-Regular, Menlo, monospace" font-size="14" font-weight="800" text-anchor="middle">
    <text x="-210" y="-115" fill="#fde68a">PROTOCOL</text>
    <text x="-210" y="-95" fill="#fde68a" font-size="11" opacity="0.8">AlphaRegistry</text>
    <text x="0" y="-115" fill="#fde68a">WEBAPP</text>
    <text x="0" y="-95" fill="#fde68a" font-size="11" opacity="0.8">app.lobo.trade</text>
    <text x="210" y="-115" fill="#fde68a">LANDING</text>
    <text x="210" y="-95" fill="#fde68a" font-size="11" opacity="0.8">Next.js + Sass</text>
    <text x="0" y="36" fill="#fde68a" font-size="14">LOBO</text>
    <text x="-160" y="166" fill="#fde68a">Stop-Loss</text>
    <text x="160" y="166" fill="#bbf7d0">Distribute</text>
  </g>
  <text x="400" y="500" text-anchor="middle" fill="#ffffff" font-family="ui-sans-serif, system-ui, sans-serif" font-size="44" font-weight="700">Lobo Trader</text>
  <text x="400" y="540" text-anchor="middle" fill="#fde68a" font-family="ui-sans-serif, system-ui, sans-serif" font-size="20" font-weight="500" opacity="0.85">Solidity &#183; React &#183; PancakeSwap UIKit</text>
</svg>
